<?xml version="1.0" encoding="UTF-8"?> <svg xmlns="http://www.w3.org/2000/svg" width="729" height="540" viewBox="0 0 729 540" fill="none"> <g clip-path="url(#clip0_52_47)"> <path d="M161.653 391.747H218.972L271.462 195.973H214.143L161.653 391.747Z" fill="#1D172F"></path> <path d="M457.578 195.973H514.897L567.392 0.194824H510.073L457.578 195.973Z" fill="#1D172F"></path> <path d="M4.1543 506.079L120.817 70.9536" stroke="#1D172F" stroke-width="3" stroke-miterlimit="10"></path> <path d="M0.724609 448.276L89.7704 116.151" stroke="#1D172F" stroke-width="3" stroke-miterlimit="10"></path> <path d="M62.8887 412.542L144.61 107.742" stroke="#1D172F" stroke-width="3" stroke-miterlimit="10"></path> <path d="M94.5352 392.572L155.969 163.447" stroke="#1D172F" stroke-width="3" stroke-miterlimit="10"></path> <path d="M258.238 539.805L292.39 412.437" stroke="#1D172F" stroke-width="3" stroke-miterlimit="10"></path> <path d="M283.096 539.805L339.375 329.892" stroke="#1D172F" stroke-width="3" stroke-miterlimit="10"></path> <path d="M331.316 539.805L350.119 469.681" stroke="#1D172F" stroke-width="3" stroke-miterlimit="10"></path> <path d="M374.871 197.517L427.776 0.194824" stroke="#1D172F" stroke-width="3" stroke-miterlimit="10"></path> <path d="M417.887 91.269L442.304 0.194824" stroke="#1D172F" stroke-width="3" stroke-miterlimit="10"></path> <path d="M581.01 417.783L642.443 188.659" stroke="#1D172F" stroke-width="3" stroke-miterlimit="10"></path> <path d="M583.949 312.679L614.666 198.117" stroke="#1D172F" stroke-width="3" stroke-miterlimit="10"></path> <path d="M626.085 367.345L687.519 138.22" stroke="#1D172F" stroke-width="3" stroke-miterlimit="10"></path> <path d="M676.93 303.221L728.274 111.714" stroke="#1D172F" stroke-width="3" stroke-miterlimit="10"></path> <path d="M446.819 357.522H439L532.965 7.06982H540.78L446.819 357.522Z" fill="#1D172F"></path> <path d="M177.502 460.417H169.688L263.648 109.966H271.462L177.502 460.417Z" fill="#1D172F"></path> </g> <defs> <clipPath id="clip0_52_47"> <rect width="729" height="540" fill="white"></rect> </clipPath> </defs> </svg> 